<mxfile host="Electron" agent="Mozilla/5.0 (X11; Linux x86_64) AppleWebKit/537.36 (KHTML, like Gecko) draw.io/24.7.17 Chrome/128.0.6613.36 Electron/32.0.1 Safari/537.36" version="24.7.17">
  <diagram name="Page-1" id="Z81wVvfF6Jedr2tQmjdC">
    <mxGraphModel dx="1195" dy="696" grid="1" gridSize="10" guides="1" tooltips="1" connect="1" arrows="1" fold="1" page="1" pageScale="1" pageWidth="850" pageHeight="1100" math="0" shadow="0">
      <root>
        <mxCell id="0" />
        <mxCell id="1" parent="0" />
        <mxCell id="HCJMQ8RJpyx5DFJ42xJZ-12" style="edgeStyle=orthogonalEdgeStyle;rounded=0;orthogonalLoop=1;jettySize=auto;html=1;entryX=0;entryY=0.5;entryDx=0;entryDy=0;" edge="1" parent="1" source="HCJMQ8RJpyx5DFJ42xJZ-1" target="HCJMQ8RJpyx5DFJ42xJZ-4">
          <mxGeometry relative="1" as="geometry" />
        </mxCell>
        <mxCell id="HCJMQ8RJpyx5DFJ42xJZ-40" style="edgeStyle=orthogonalEdgeStyle;rounded=0;orthogonalLoop=1;jettySize=auto;html=1;entryX=0;entryY=0.5;entryDx=0;entryDy=0;" edge="1" parent="1" source="HCJMQ8RJpyx5DFJ42xJZ-1" target="HCJMQ8RJpyx5DFJ42xJZ-39">
          <mxGeometry relative="1" as="geometry" />
        </mxCell>
        <mxCell id="HCJMQ8RJpyx5DFJ42xJZ-1" value="Pacient" style="shape=umlActor;verticalLabelPosition=bottom;verticalAlign=top;html=1;outlineConnect=0;" vertex="1" parent="1">
          <mxGeometry x="170" y="220" width="30" height="60" as="geometry" />
        </mxCell>
        <mxCell id="HCJMQ8RJpyx5DFJ42xJZ-19" style="edgeStyle=orthogonalEdgeStyle;rounded=0;orthogonalLoop=1;jettySize=auto;html=1;entryX=0;entryY=0.5;entryDx=0;entryDy=0;" edge="1" parent="1" source="HCJMQ8RJpyx5DFJ42xJZ-2" target="HCJMQ8RJpyx5DFJ42xJZ-13">
          <mxGeometry relative="1" as="geometry" />
        </mxCell>
        <mxCell id="HCJMQ8RJpyx5DFJ42xJZ-2" value="Lékař" style="shape=umlActor;verticalLabelPosition=bottom;verticalAlign=top;html=1;outlineConnect=0;" vertex="1" parent="1">
          <mxGeometry x="170" y="340" width="30" height="60" as="geometry" />
        </mxCell>
        <mxCell id="HCJMQ8RJpyx5DFJ42xJZ-28" style="edgeStyle=orthogonalEdgeStyle;rounded=0;orthogonalLoop=1;jettySize=auto;html=1;entryX=0;entryY=0.5;entryDx=0;entryDy=0;" edge="1" parent="1" source="HCJMQ8RJpyx5DFJ42xJZ-3" target="HCJMQ8RJpyx5DFJ42xJZ-27">
          <mxGeometry relative="1" as="geometry" />
        </mxCell>
        <mxCell id="HCJMQ8RJpyx5DFJ42xJZ-47" style="edgeStyle=orthogonalEdgeStyle;rounded=0;orthogonalLoop=1;jettySize=auto;html=1;entryX=0;entryY=0.5;entryDx=0;entryDy=0;" edge="1" parent="1" source="HCJMQ8RJpyx5DFJ42xJZ-3" target="HCJMQ8RJpyx5DFJ42xJZ-46">
          <mxGeometry relative="1" as="geometry" />
        </mxCell>
        <mxCell id="HCJMQ8RJpyx5DFJ42xJZ-3" value="Laboratorní technik" style="shape=umlActor;verticalLabelPosition=bottom;verticalAlign=top;html=1;outlineConnect=0;" vertex="1" parent="1">
          <mxGeometry x="170" y="450" width="30" height="60" as="geometry" />
        </mxCell>
        <mxCell id="HCJMQ8RJpyx5DFJ42xJZ-7" style="edgeStyle=orthogonalEdgeStyle;rounded=0;orthogonalLoop=1;jettySize=auto;html=1;entryX=0;entryY=0.5;entryDx=0;entryDy=0;dashed=1;" edge="1" parent="1" source="HCJMQ8RJpyx5DFJ42xJZ-4" target="HCJMQ8RJpyx5DFJ42xJZ-5">
          <mxGeometry relative="1" as="geometry" />
        </mxCell>
        <mxCell id="HCJMQ8RJpyx5DFJ42xJZ-11" value="Include" style="edgeLabel;html=1;align=center;verticalAlign=middle;resizable=0;points=[];" vertex="1" connectable="0" parent="HCJMQ8RJpyx5DFJ42xJZ-7">
          <mxGeometry x="-0.25" y="-1" relative="1" as="geometry">
            <mxPoint x="10" y="-1" as="offset" />
          </mxGeometry>
        </mxCell>
        <mxCell id="HCJMQ8RJpyx5DFJ42xJZ-4" value="UC1: Zobrazení záznamů" style="ellipse;whiteSpace=wrap;html=1;" vertex="1" parent="1">
          <mxGeometry x="320" y="90" width="120" height="80" as="geometry" />
        </mxCell>
        <mxCell id="HCJMQ8RJpyx5DFJ42xJZ-8" style="edgeStyle=orthogonalEdgeStyle;rounded=0;orthogonalLoop=1;jettySize=auto;html=1;entryX=0;entryY=0.5;entryDx=0;entryDy=0;dashed=1;exitX=1;exitY=0;exitDx=0;exitDy=0;" edge="1" parent="1" source="HCJMQ8RJpyx5DFJ42xJZ-5" target="HCJMQ8RJpyx5DFJ42xJZ-6">
          <mxGeometry relative="1" as="geometry" />
        </mxCell>
        <mxCell id="HCJMQ8RJpyx5DFJ42xJZ-10" value="Include" style="edgeLabel;html=1;align=center;verticalAlign=middle;resizable=0;points=[];" vertex="1" connectable="0" parent="HCJMQ8RJpyx5DFJ42xJZ-8">
          <mxGeometry x="-0.3102" relative="1" as="geometry">
            <mxPoint x="6" as="offset" />
          </mxGeometry>
        </mxCell>
        <mxCell id="HCJMQ8RJpyx5DFJ42xJZ-44" style="edgeStyle=orthogonalEdgeStyle;rounded=0;orthogonalLoop=1;jettySize=auto;html=1;exitX=1;exitY=0.5;exitDx=0;exitDy=0;entryX=0;entryY=0.5;entryDx=0;entryDy=0;dashed=1;" edge="1" parent="1" source="HCJMQ8RJpyx5DFJ42xJZ-5" target="HCJMQ8RJpyx5DFJ42xJZ-43">
          <mxGeometry relative="1" as="geometry" />
        </mxCell>
        <mxCell id="HCJMQ8RJpyx5DFJ42xJZ-45" value="Include" style="edgeLabel;html=1;align=center;verticalAlign=middle;resizable=0;points=[];" vertex="1" connectable="0" parent="HCJMQ8RJpyx5DFJ42xJZ-44">
          <mxGeometry x="0.0208" y="-1" relative="1" as="geometry">
            <mxPoint as="offset" />
          </mxGeometry>
        </mxCell>
        <mxCell id="HCJMQ8RJpyx5DFJ42xJZ-5" value="Přihlášení jako pacient" style="ellipse;whiteSpace=wrap;html=1;" vertex="1" parent="1">
          <mxGeometry x="520" y="210" width="120" height="80" as="geometry" />
        </mxCell>
        <mxCell id="HCJMQ8RJpyx5DFJ42xJZ-6" value="Zobrazení záznamů" style="ellipse;whiteSpace=wrap;html=1;" vertex="1" parent="1">
          <mxGeometry x="720" y="110" width="120" height="80" as="geometry" />
        </mxCell>
        <mxCell id="HCJMQ8RJpyx5DFJ42xJZ-17" style="edgeStyle=orthogonalEdgeStyle;rounded=0;orthogonalLoop=1;jettySize=auto;html=1;entryX=0;entryY=0.5;entryDx=0;entryDy=0;dashed=1;" edge="1" parent="1" source="HCJMQ8RJpyx5DFJ42xJZ-13" target="HCJMQ8RJpyx5DFJ42xJZ-16">
          <mxGeometry relative="1" as="geometry" />
        </mxCell>
        <mxCell id="HCJMQ8RJpyx5DFJ42xJZ-18" value="Include" style="edgeLabel;html=1;align=center;verticalAlign=middle;resizable=0;points=[];" vertex="1" connectable="0" parent="HCJMQ8RJpyx5DFJ42xJZ-17">
          <mxGeometry x="-0.05" y="1" relative="1" as="geometry">
            <mxPoint as="offset" />
          </mxGeometry>
        </mxCell>
        <mxCell id="HCJMQ8RJpyx5DFJ42xJZ-13" value="UC2: Předepsání léků" style="ellipse;whiteSpace=wrap;html=1;" vertex="1" parent="1">
          <mxGeometry x="320" y="310" width="120" height="80" as="geometry" />
        </mxCell>
        <mxCell id="HCJMQ8RJpyx5DFJ42xJZ-21" style="edgeStyle=orthogonalEdgeStyle;rounded=0;orthogonalLoop=1;jettySize=auto;html=1;entryX=0;entryY=0.5;entryDx=0;entryDy=0;dashed=1;" edge="1" parent="1" source="HCJMQ8RJpyx5DFJ42xJZ-16" target="HCJMQ8RJpyx5DFJ42xJZ-20">
          <mxGeometry relative="1" as="geometry" />
        </mxCell>
        <mxCell id="HCJMQ8RJpyx5DFJ42xJZ-24" value="Include" style="edgeLabel;html=1;align=center;verticalAlign=middle;resizable=0;points=[];" vertex="1" connectable="0" parent="HCJMQ8RJpyx5DFJ42xJZ-21">
          <mxGeometry x="-0.1" y="-1" relative="1" as="geometry">
            <mxPoint as="offset" />
          </mxGeometry>
        </mxCell>
        <mxCell id="HCJMQ8RJpyx5DFJ42xJZ-16" value="Přihlášení jako lékař" style="ellipse;whiteSpace=wrap;html=1;" vertex="1" parent="1">
          <mxGeometry x="520" y="310" width="120" height="80" as="geometry" />
        </mxCell>
        <mxCell id="HCJMQ8RJpyx5DFJ42xJZ-23" style="edgeStyle=orthogonalEdgeStyle;rounded=0;orthogonalLoop=1;jettySize=auto;html=1;entryX=0;entryY=0;entryDx=0;entryDy=0;dashed=1;" edge="1" parent="1" source="HCJMQ8RJpyx5DFJ42xJZ-20" target="HCJMQ8RJpyx5DFJ42xJZ-22">
          <mxGeometry relative="1" as="geometry" />
        </mxCell>
        <mxCell id="HCJMQ8RJpyx5DFJ42xJZ-25" value="Include" style="edgeLabel;html=1;align=center;verticalAlign=middle;resizable=0;points=[];" vertex="1" connectable="0" parent="HCJMQ8RJpyx5DFJ42xJZ-23">
          <mxGeometry x="-0.0667" y="-2" relative="1" as="geometry">
            <mxPoint x="12" y="4" as="offset" />
          </mxGeometry>
        </mxCell>
        <mxCell id="HCJMQ8RJpyx5DFJ42xJZ-20" value="Předepsání léků" style="ellipse;whiteSpace=wrap;html=1;" vertex="1" parent="1">
          <mxGeometry x="720" y="320" width="120" height="80" as="geometry" />
        </mxCell>
        <mxCell id="HCJMQ8RJpyx5DFJ42xJZ-22" value="Informování pacienta" style="ellipse;whiteSpace=wrap;html=1;" vertex="1" parent="1">
          <mxGeometry x="910" y="360" width="120" height="80" as="geometry" />
        </mxCell>
        <mxCell id="HCJMQ8RJpyx5DFJ42xJZ-26" value="Informování lékaře" style="ellipse;whiteSpace=wrap;html=1;" vertex="1" parent="1">
          <mxGeometry x="910" y="470" width="120" height="80" as="geometry" />
        </mxCell>
        <mxCell id="HCJMQ8RJpyx5DFJ42xJZ-30" style="edgeStyle=orthogonalEdgeStyle;rounded=0;orthogonalLoop=1;jettySize=auto;html=1;entryX=0;entryY=0.5;entryDx=0;entryDy=0;dashed=1;" edge="1" parent="1" source="HCJMQ8RJpyx5DFJ42xJZ-27" target="HCJMQ8RJpyx5DFJ42xJZ-29">
          <mxGeometry relative="1" as="geometry" />
        </mxCell>
        <mxCell id="HCJMQ8RJpyx5DFJ42xJZ-31" value="Include" style="edgeLabel;html=1;align=center;verticalAlign=middle;resizable=0;points=[];" vertex="1" connectable="0" parent="HCJMQ8RJpyx5DFJ42xJZ-30">
          <mxGeometry x="-0.0917" y="-1" relative="1" as="geometry">
            <mxPoint as="offset" />
          </mxGeometry>
        </mxCell>
        <mxCell id="HCJMQ8RJpyx5DFJ42xJZ-27" value="UC3: Zadání výsledků testů" style="ellipse;whiteSpace=wrap;html=1;" vertex="1" parent="1">
          <mxGeometry x="320" y="420" width="120" height="80" as="geometry" />
        </mxCell>
        <mxCell id="HCJMQ8RJpyx5DFJ42xJZ-33" style="edgeStyle=orthogonalEdgeStyle;rounded=0;orthogonalLoop=1;jettySize=auto;html=1;entryX=0;entryY=0.5;entryDx=0;entryDy=0;dashed=1;" edge="1" parent="1" source="HCJMQ8RJpyx5DFJ42xJZ-29" target="HCJMQ8RJpyx5DFJ42xJZ-32">
          <mxGeometry relative="1" as="geometry" />
        </mxCell>
        <mxCell id="HCJMQ8RJpyx5DFJ42xJZ-34" value="Include" style="edgeLabel;html=1;align=center;verticalAlign=middle;resizable=0;points=[];" vertex="1" connectable="0" parent="HCJMQ8RJpyx5DFJ42xJZ-33">
          <mxGeometry x="0.0714" y="-1" relative="1" as="geometry">
            <mxPoint as="offset" />
          </mxGeometry>
        </mxCell>
        <mxCell id="HCJMQ8RJpyx5DFJ42xJZ-51" style="edgeStyle=orthogonalEdgeStyle;rounded=0;orthogonalLoop=1;jettySize=auto;html=1;exitX=1;exitY=1;exitDx=0;exitDy=0;entryX=0;entryY=0.5;entryDx=0;entryDy=0;dashed=1;" edge="1" parent="1" source="HCJMQ8RJpyx5DFJ42xJZ-29" target="HCJMQ8RJpyx5DFJ42xJZ-50">
          <mxGeometry relative="1" as="geometry" />
        </mxCell>
        <mxCell id="HCJMQ8RJpyx5DFJ42xJZ-52" value="Include" style="edgeLabel;html=1;align=center;verticalAlign=middle;resizable=0;points=[];" vertex="1" connectable="0" parent="HCJMQ8RJpyx5DFJ42xJZ-51">
          <mxGeometry x="0.0526" y="-2" relative="1" as="geometry">
            <mxPoint as="offset" />
          </mxGeometry>
        </mxCell>
        <mxCell id="HCJMQ8RJpyx5DFJ42xJZ-29" value="Přihlášení jako technik" style="ellipse;whiteSpace=wrap;html=1;" vertex="1" parent="1">
          <mxGeometry x="530" y="420" width="120" height="80" as="geometry" />
        </mxCell>
        <mxCell id="HCJMQ8RJpyx5DFJ42xJZ-35" style="edgeStyle=orthogonalEdgeStyle;rounded=0;orthogonalLoop=1;jettySize=auto;html=1;entryX=0;entryY=0;entryDx=0;entryDy=0;dashed=1;" edge="1" parent="1" source="HCJMQ8RJpyx5DFJ42xJZ-32" target="HCJMQ8RJpyx5DFJ42xJZ-26">
          <mxGeometry relative="1" as="geometry" />
        </mxCell>
        <mxCell id="HCJMQ8RJpyx5DFJ42xJZ-37" value="Include" style="edgeLabel;html=1;align=center;verticalAlign=middle;resizable=0;points=[];" vertex="1" connectable="0" parent="HCJMQ8RJpyx5DFJ42xJZ-35">
          <mxGeometry x="0.5" relative="1" as="geometry">
            <mxPoint x="-7" y="-2" as="offset" />
          </mxGeometry>
        </mxCell>
        <mxCell id="HCJMQ8RJpyx5DFJ42xJZ-36" style="edgeStyle=orthogonalEdgeStyle;rounded=0;orthogonalLoop=1;jettySize=auto;html=1;entryX=0;entryY=1;entryDx=0;entryDy=0;dashed=1;" edge="1" parent="1" source="HCJMQ8RJpyx5DFJ42xJZ-32" target="HCJMQ8RJpyx5DFJ42xJZ-22">
          <mxGeometry relative="1" as="geometry" />
        </mxCell>
        <mxCell id="HCJMQ8RJpyx5DFJ42xJZ-38" value="Include" style="edgeLabel;html=1;align=center;verticalAlign=middle;resizable=0;points=[];" vertex="1" connectable="0" parent="HCJMQ8RJpyx5DFJ42xJZ-36">
          <mxGeometry x="0.0722" y="-2" relative="1" as="geometry">
            <mxPoint x="8" as="offset" />
          </mxGeometry>
        </mxCell>
        <mxCell id="HCJMQ8RJpyx5DFJ42xJZ-32" value="Zadání a uložení výsledků" style="ellipse;whiteSpace=wrap;html=1;" vertex="1" parent="1">
          <mxGeometry x="720" y="420" width="120" height="80" as="geometry" />
        </mxCell>
        <mxCell id="HCJMQ8RJpyx5DFJ42xJZ-41" style="edgeStyle=orthogonalEdgeStyle;rounded=0;orthogonalLoop=1;jettySize=auto;html=1;exitX=1;exitY=0.5;exitDx=0;exitDy=0;entryX=0;entryY=0.5;entryDx=0;entryDy=0;dashed=1;" edge="1" parent="1" source="HCJMQ8RJpyx5DFJ42xJZ-39" target="HCJMQ8RJpyx5DFJ42xJZ-5">
          <mxGeometry relative="1" as="geometry" />
        </mxCell>
        <mxCell id="HCJMQ8RJpyx5DFJ42xJZ-42" value="Include" style="edgeLabel;html=1;align=center;verticalAlign=middle;resizable=0;points=[];" vertex="1" connectable="0" parent="HCJMQ8RJpyx5DFJ42xJZ-41">
          <mxGeometry x="-0.5667" y="1" relative="1" as="geometry">
            <mxPoint as="offset" />
          </mxGeometry>
        </mxCell>
        <mxCell id="HCJMQ8RJpyx5DFJ42xJZ-39" value="UC4: Naplánování vyšetření" style="ellipse;whiteSpace=wrap;html=1;" vertex="1" parent="1">
          <mxGeometry x="320" y="190" width="120" height="80" as="geometry" />
        </mxCell>
        <mxCell id="HCJMQ8RJpyx5DFJ42xJZ-43" value="Naplánování vyšetření" style="ellipse;whiteSpace=wrap;html=1;" vertex="1" parent="1">
          <mxGeometry x="720" y="210" width="120" height="80" as="geometry" />
        </mxCell>
        <mxCell id="HCJMQ8RJpyx5DFJ42xJZ-48" style="edgeStyle=orthogonalEdgeStyle;rounded=0;orthogonalLoop=1;jettySize=auto;html=1;entryX=0;entryY=1;entryDx=0;entryDy=0;dashed=1;" edge="1" parent="1" source="HCJMQ8RJpyx5DFJ42xJZ-46" target="HCJMQ8RJpyx5DFJ42xJZ-29">
          <mxGeometry relative="1" as="geometry" />
        </mxCell>
        <mxCell id="HCJMQ8RJpyx5DFJ42xJZ-49" value="Include" style="edgeLabel;html=1;align=center;verticalAlign=middle;resizable=0;points=[];" vertex="1" connectable="0" parent="HCJMQ8RJpyx5DFJ42xJZ-48">
          <mxGeometry x="-0.3865" relative="1" as="geometry">
            <mxPoint as="offset" />
          </mxGeometry>
        </mxCell>
        <mxCell id="HCJMQ8RJpyx5DFJ42xJZ-46" value="UC5: Odeslání pouze lékaři" style="ellipse;whiteSpace=wrap;html=1;" vertex="1" parent="1">
          <mxGeometry x="320" y="520" width="120" height="80" as="geometry" />
        </mxCell>
        <mxCell id="HCJMQ8RJpyx5DFJ42xJZ-53" style="edgeStyle=orthogonalEdgeStyle;rounded=0;orthogonalLoop=1;jettySize=auto;html=1;entryX=0;entryY=1;entryDx=0;entryDy=0;dashed=1;" edge="1" parent="1" source="HCJMQ8RJpyx5DFJ42xJZ-50" target="HCJMQ8RJpyx5DFJ42xJZ-26">
          <mxGeometry relative="1" as="geometry" />
        </mxCell>
        <mxCell id="HCJMQ8RJpyx5DFJ42xJZ-54" value="Include" style="edgeLabel;html=1;align=center;verticalAlign=middle;resizable=0;points=[];" vertex="1" connectable="0" parent="HCJMQ8RJpyx5DFJ42xJZ-53">
          <mxGeometry x="0.2998" y="-4" relative="1" as="geometry">
            <mxPoint as="offset" />
          </mxGeometry>
        </mxCell>
        <mxCell id="HCJMQ8RJpyx5DFJ42xJZ-50" value="Odeslání pouze lékaři" style="ellipse;whiteSpace=wrap;html=1;" vertex="1" parent="1">
          <mxGeometry x="720" y="530" width="120" height="80" as="geometry" />
        </mxCell>
      </root>
    </mxGraphModel>
  </diagram>
</mxfile>
